<?xml version="1.0" encoding="UTF-8"?>
<svg width="264px" height="36px" viewBox="0 0 264 36" version="1.1" xmlns="http://www.w3.org/2000/svg" xmlns:xlink="http://www.w3.org/1999/xlink">
    <title>264</title>
    <g id="Golden-Club" stroke="none" stroke-width="1" fill="none" fill-rule="evenodd">
        <g id="Logo-Copy" fill="#FFFFFF">
            <path d="M174.992449,23.1458901 L194.746782,23.1458901 L192.902251,34.6890847 L148.633505,34.6890847 L149.764024,27.3704613 C148.931006,28.4811522 147.859999,29.5323261 146.55097,30.5240145 C145.241941,31.4760353 143.63543,32.309041 141.731389,33.0230566 C139.827347,33.7370722 137.586165,34.3122428 135.007775,34.7485857 C132.429386,35.145261 129.434532,35.3435957 126.023124,35.3435957 L123.762086,35.3435957 C119.874668,35.3435957 116.562478,35.0659271 113.825418,34.5105816 C111.088359,33.9552362 108.797593,33.1916476 106.953053,32.219793 C105.108512,31.2479385 103.650752,30.1273474 102.579729,28.8579864 C101.548373,27.6282928 100.794701,26.3192839 100.318691,24.9309202 C100.318691,25.2085929 100.308774,25.4961782 100.28894,25.7936847 C100.269107,26.0911912 100.239356,26.39861 100.199689,26.7159503 L99.9616848,27.9059703 L98.8906667,34.6890847 L81.7543779,34.6890847 L81.9923819,33.4990646 L81.9923819,33.3800626 L82.2898869,31.5950325 L82.6468929,29.3339944 C82.9245657,27.6282905 82.6369804,26.2796145 81.7841284,25.2879262 C80.9312764,24.2962379 79.3346821,23.8004011 76.9942977,23.8004011 L67.6526402,23.8004011 L65.9271111,34.6890847 L48.9693253,34.6890847 L51.4683675,18.6833149 C50.397344,20.6666916 48.642082,22.2831193 46.2025287,23.5326466 C43.7629754,24.7821739 40.302035,25.4069282 35.8196037,25.4069282 L18.4453109,25.4069282 L16.9577858,34.6890847 L0,34.6890847 L5.41459126,0.654511031 L37.6641348,0.654511031 C42.9795843,0.654511031 46.7677769,1.48751674 49.0288263,3.15355315 C51.2898757,4.81958956 52.5988847,6.88227036 52.9558925,9.34165744 L54.3244156,0.654511031 L90.9770333,0.654511031 C94.3091062,0.654511031 97.0857919,1.23959837 99.3071737,2.40979061 C101.528556,3.57998285 102.69873,5.55341305 102.817733,8.3301404 C103.650751,7.17978192 104.721758,6.08894111 106.030787,5.05758524 C107.339816,4.0658969 108.96616,3.19322425 110.909869,2.43954112 C112.853578,1.68585798 115.134427,1.0908539 117.752485,0.654511031 C120.370542,0.218168162 123.424896,0 126.915639,0 L129.176677,0 C133.103763,0 136.435786,0.27766857 139.172846,0.83301404 C141.909905,1.38835951 144.200671,2.12219787 146.045211,3.03455114 C147.889752,3.94690442 149.327678,5.01791176 150.359034,6.2476053 C151.430058,7.4376313 152.203563,8.68713987 152.679573,9.99616848 L154.107597,0.654511031 L198.138339,0.654511031 L196.829317,8.92515043 L174.992449,23.1458901 Z M32.0115395,15.1132547 C33.2809006,15.1132547 34.16349,14.8752531 34.6593342,14.3992427 C35.1551783,13.9232323 35.4030967,13.3282282 35.4030967,12.6142126 C35.4030967,11.9795321 35.204762,11.4936121 34.8080867,11.156438 C34.4114113,10.819264 33.6974064,10.6506795 32.6660506,10.6506795 L20.76585,10.6506795 L20.051838,15.1132547 L32.0115395,15.1132547 Z M81.6948769,14.2802407 C83.0039055,14.2802407 83.8765781,14.0124888 84.312921,13.4769771 C84.7492639,12.9414654 84.967432,12.396045 84.967432,11.8406996 C84.967432,11.2853541 84.7591806,10.8291843 84.3426715,10.4721765 C83.9261624,10.1151687 83.1824073,9.93666747 82.1113839,9.93666747 L69.8541773,9.93666747 L69.1401653,14.2802407 L81.6948769,14.2802407 Z M93.7140795,17.7907998 C95.1024431,18.1874752 96.3122848,18.7626458 97.3436406,19.5163289 C98.3749965,20.2700121 99.1485018,21.1823517 99.6641797,22.2533751 C99.5848447,21.8566997 99.535261,21.4600303 99.5154272,21.063355 C99.4955935,20.6666797 99.4856767,20.2700103 99.4856767,19.8733349 C99.4856767,19.357657 99.5055102,18.7924031 99.5451777,18.1775564 C99.5848453,17.5627096 99.6443457,16.9379553 99.7236808,16.3032748 C99.7633483,16.1049371 99.8030152,15.8966857 99.8426828,15.6785142 C99.8823503,15.4603428 99.9220172,15.2322579 99.9616848,14.9942527 C99.1286666,15.7479359 98.1568266,16.3627734 97.0461356,16.8387838 C95.9354447,17.3147942 94.8247704,17.6321297 93.7140795,17.7907998 Z M135.840789,18.2073069 C135.880457,17.9296341 135.920124,17.6420488 135.959791,17.3445423 C135.999459,17.0470358 136.019292,16.779284 136.019292,16.5412788 C136.019292,15.1132476 135.374705,13.8042386 134.08551,12.6142126 C132.796315,11.4241866 130.465882,10.8291825 127.094142,10.8291825 C123.484397,10.8291825 120.985379,11.4737703 119.597016,12.7629651 C118.208652,14.0521599 117.375646,15.4107526 117.097974,16.8387838 C117.058306,17.076789 117.028556,17.3445408 117.008722,17.6420473 C116.988888,17.9395538 116.978972,18.2271391 116.978972,18.5048119 C116.978972,19.9328431 117.623559,21.281519 118.912754,22.5508801 C120.201949,23.8202411 122.512548,24.4549122 125.844621,24.4549122 C129.414699,24.4549122 131.913716,23.7904909 133.341747,22.4616286 C134.769779,21.1327662 135.602784,19.7146731 135.840789,18.2073069 Z M150.835042,25.8829362 L172.0769,11.7216976 L153.155581,11.7216976 C153.314251,12.3167106 153.413419,12.9117146 153.453086,13.5067276 C153.492754,14.1017406 153.512587,14.6769113 153.512587,15.2322567 C153.512587,15.7876022 153.482837,16.4024397 153.423336,17.0767878 C153.363835,17.7511359 153.294417,18.3858069 153.215082,18.9808199 C153.016745,20.0915108 152.739076,21.2319353 152.382068,22.4021276 C152.02506,23.5723198 151.50939,24.7325778 150.835042,25.8829362 Z M239.670039,8.27063939 C237.646995,8.27063939 236.288403,8.40947368 235.594221,8.68714641 C234.900039,8.96481915 234.552953,9.42098894 234.552953,10.0556695 C234.552953,10.6506825 234.949623,11.116769 235.742973,11.453943 C236.536324,11.7911171 238.242002,12.019202 240.860059,12.1382046 L246.393653,12.4357096 C252.621456,12.7133823 256.955069,13.6058884 259.394622,15.1132547 C261.834175,16.620621 263.053934,18.9213034 263.053934,22.015371 C263.053934,22.4517139 263.044017,22.8781335 263.024183,23.2946426 C263.004349,23.7111517 262.974599,24.0780709 262.934932,24.3954112 C262.696926,25.9027774 262.20109,27.3307872 261.447406,28.6794834 C260.693723,30.0281795 259.424381,31.1983542 257.639342,32.1900425 C255.854303,33.1817309 253.454453,33.9552362 250.439721,34.5105816 C247.424988,35.0659271 243.577295,35.3435957 238.896526,35.3435957 L233.065428,35.3435957 C229.535018,35.3435957 226.559997,35.1254275 224.140278,34.6890847 C221.680891,34.2527418 219.667793,33.6775712 218.100926,32.9635556 C216.534058,32.24954 215.334133,31.4165343 214.501115,30.4645135 C213.668097,29.5521602 213.073093,28.6199871 212.716085,27.6679663 L211.645067,34.6890847 L194.687281,34.6890847 L200.042372,0.654511031 L217.000157,0.654511031 L216.048141,6.66411232 C216.643154,5.55342138 217.495993,4.58158138 218.606684,3.74856318 C219.677708,2.91554497 221.095801,2.23129028 222.861006,1.69577858 C224.626211,1.16026688 226.738476,0.753680758 229.197863,0.476008023 C231.65725,0.198335288 234.552937,0.0595010028 237.885009,0.0595010028 L243.537605,0.0595010028 C248.416711,0.0595010028 252.244571,0.41650345 255.021298,1.13051905 C257.798025,1.84453466 259.870623,2.73704078 261.239153,3.80806418 C262.607683,4.87908759 263.430772,6.06909574 263.708445,7.37812435 C263.986117,8.64748543 264.065451,9.85732705 263.946449,11.0076855 L244.43012,11.0076855 C244.43012,10.373005 244.182201,9.75816744 243.686357,9.16315444 C243.190513,8.56814143 241.851754,8.27063939 239.670039,8.27063939 Z M236.15948,21.836868 L230.566386,21.539363 C224.893929,21.1823552 220.976819,20.1609316 218.814938,18.4750614 C216.653057,16.7891912 215.433299,14.7959275 215.155626,12.4952106 L213.489598,23.1458901 L232.172913,23.1458901 C232.172913,23.8599057 232.400998,24.6433277 232.857175,25.4961797 C233.313351,26.3490317 234.731444,26.7754513 237.111496,26.7754513 C239.332878,26.7754513 240.770805,26.5076994 241.425319,25.9721877 C242.079833,25.436676 242.407086,24.8912556 242.407086,24.3359102 C242.407086,23.7012296 242.06,23.165726 241.365818,22.7293831 C240.671636,22.2930402 238.936208,21.9955382 236.15948,21.836868 Z" id="Logo"></path>
        </g>
    </g>
</svg>